<svg xmlns="http://www.w3.org/2000/svg" viewBox="0 0 32 32"><g fill="none" fill-rule="evenodd"><path fill="#FD001C" d="M0 32h32V0H0z"/><path fill="#FFD900" d="M11.194 27.994L32 23.7v-4.074z"/><path fill="#FF9F00" d="M11.194 27.994L32 29.9v-6.304z"/><path fill="#FF4F00" d="M30.9 32H32v-2.153l-20.806-1.852z"/><path fill="#7ACAED" d="M24 32h7.039l-19.845-4.005z"/><path fill="#1EABE7" d="M15 32h9.193l-12.999-4.005z"/><path fill="#297AE4" d="M9.8 32h5.33l-3.936-4.005z"/><path fill="#E2E900" d="M0 31.55V32h9.838l1.356-4.006z"/><path fill="#93D800" d="M0 29.25v2.383l11.194-3.639z"/><path fill="#00AE3A" d="M0 29.317l11.194-1.323L0 26.85z"/><path fill="#FF5754" d="M0 26.969l11.194 1.025L0 22.702z"/><path fill="#FFF" d="M18.7 5.4h.55c.54.02 1.09.04 1.64.1.11 0 .24.02.33.11.1.08.1.22.1.34 0 .21-.04.42-.08.63a.84.84 0 0 1-.19.4c-.1.1-.26.1-.39.1-.45-.05-.9-.08-1.35-.09-.28 0-.56 0-.83.04a.95.95 0 0 0-.51.22.46.46 0 0 0-.12.45c.04.15.17.26.3.34.26.14.55.21.84.3.46.13.92.3 1.34.55.3.2.58.46.75.8.18.36.2.8.15 1.2-.06.4-.24.81-.53 1.11a2.6 2.6 0 0 1-1.2.7 5.5 5.5 0 0 1-1.45.14c-.74.01-1.47-.05-2.2-.17-.1-.02-.24-.05-.28-.17-.04-.15 0-.3.02-.44.04-.23.07-.46.13-.68.02-.1.07-.22.18-.25.12-.03.25 0 .37 0 .7.08 1.4.14 2.1.1.28 0 .58-.04.83-.19.15-.09.29-.25.29-.43a.42.42 0 0 0-.18-.35c-.17-.13-.37-.2-.57-.26-.61-.19-1.25-.36-1.8-.7a1.76 1.76 0 0 1-.78-.92 2.25 2.25 0 0 1 0-1.27c.13-.5.45-.92.87-1.2.5-.33 1.1-.47 1.68-.5M5.4 5.53c.09-.08.22-.08.34-.08h2.39c.15 0 .3 0 .45.04.09.03.14.12.14.21.01.2-.04.4-.07.6l-.75 4.45a4.83 4.83 0 0 1-.88 2.17c-.45.6-1.12 1-1.84 1.2l-.38.1h-.12a.43.43 0 0 1-.2-.16c-.1-.14-.17-.3-.23-.48-.06-.16-.13-.32-.16-.5v-.1c.04-.17.21-.24.36-.29.45-.14.9-.34 1.24-.69.28-.3.42-.7.5-1.1L6.85 7H5.47c-.1 0-.25 0-.32-.1-.05-.1-.03-.23-.01-.34.03-.24.07-.47.12-.7.03-.13.04-.25.14-.33m4.52-.06c.33-.04.65-.02.98-.02.13.01.32.02.37.17.06.2 0 .4-.02.6l-.58 3.41c-.06.3-.09.64.01.94a.9.9 0 0 0 .42.52c.27.15.6.17.9.15.3-.02.6-.13.8-.37.26-.29.35-.68.42-1.05l.68-3.85c.03-.13.04-.27.12-.38.09-.1.24-.13.36-.14h.79c.12 0 .25 0 .35.08.08.06.09.17.09.27 0 .18-.04.36-.07.54l-.57 3.32c-.1.7-.26 1.43-.66 2.03-.22.34-.52.63-.88.82-.57.3-1.22.38-1.86.38-.67 0-1.37-.2-1.87-.68a2.4 2.4 0 0 1-.76-1.48c-.05-.36-.03-.72.03-1.07L9.6 5.9c.02-.1.04-.22.1-.3a.32.32 0 0 1 .22-.13m12.3.04c.13-.07.3-.06.44-.07h4.86c.11.01.24 0 .34.07.08.07.06.2.05.3a7.9 7.9 0 0 1-.14.8c-.03.12-.06.26-.17.33-.12.06-.25.05-.38.06h-1.58l-.92 5.33c-.03.13-.05.27-.16.36-.1.1-.25.1-.38.1h-.82c-.1-.02-.24-.04-.29-.15-.06-.12-.03-.26-.02-.4.06-.48.16-.95.24-1.42l.65-3.8h-1.67c-.1 0-.24 0-.31-.09-.06-.1-.04-.2-.03-.3.03-.26.08-.5.13-.76.03-.12.05-.27.17-.35m-11.67 8.86c.15-.16.38-.16.57-.17h3.98c.1 0 .27 0 .3.14.04.2-.02.37-.04.56-.05.23-.06.46-.16.67-.05.11-.17.16-.28.17-.25.02-.5.01-.76.01h-2.3l-.22 1.34h2.25c.16 0 .33 0 .49.06.1.04.1.16.1.26-.01.23-.06.45-.1.68-.02.13-.03.28-.12.38-.1.1-.25.1-.37.1h-2.5l-.22 1.4h2.42c.22.01.45 0 .67.02.08 0 .18.03.2.12.04.12.01.26 0 .4l-.13.7c-.03.1-.07.22-.18.27-.12.06-.26.05-.39.05h-3.35c-.25 0-.5.01-.74-.02-.13-.02-.28-.07-.32-.2-.07-.2-.02-.4 0-.6l.32-1.92.66-3.84c.05-.2.07-.43.22-.58m8.6 1.5l-.14.3-1 2.18h1.76c-.1-.8-.22-1.59-.33-2.38 0-.05 0-.13-.08-.14-.07 0-.16-.02-.2.04m-.93-1.52c.16-.13.37-.13.56-.14.42-.02.84-.02 1.26 0 .2 0 .4 0 .56.12.17.15.2.4.24.6l1.05 5.88c.02.17.06.34 0 .5-.05.14-.21.2-.34.2-.3.03-.58.03-.87.02-.13 0-.28 0-.39-.1-.1-.1-.11-.26-.14-.4l-.17-1.2h-2.65l-.43.95c-.1.2-.17.41-.3.58-.12.15-.31.17-.48.17-.32 0-.63.01-.95-.02-.11-.02-.27-.05-.3-.18-.02-.16.06-.3.11-.44l.53-1.1 2.38-4.94c.1-.18.17-.37.33-.5m4.01-.1c.13-.06.28-.05.42-.05h4.4l.66.01c.08 0 .18.05.18.15.02.22-.04.44-.07.66-.04.2-.05.4-.15.58-.08.15-.26.15-.4.15h-1.65l-.92 5.33c-.03.15-.07.33-.23.4-.17.07-.37.05-.56.06-.23 0-.48.01-.7-.04a.24.24 0 0 1-.19-.24c0-.25.05-.5.09-.75l.82-4.76h-1.67c-.1 0-.23 0-.31-.07-.07-.1-.05-.2-.04-.3.04-.28.08-.54.14-.8.03-.12.06-.27.18-.33"/></g></svg>