<svg xmlns="http://www.w3.org/2000/svg" width="32" height="32" viewBox="0 0 32 32">
    <g fill="none" fill-rule="evenodd">
        <g fill="#FF8802" fill-rule="nonzero">
            <path d="M31.8 15.55c-1.05-1.759-2.214-3.448-3.484-5.067l-.035-.035-.011-.012c-.059-.081-.233-.28-.292-.36-.582-.793-1.258-7.118-1.328-7.584-.093-.548-.256-1.119-1.048-1.212-.64-.07-1.608-.175-2.656-.233-.49-.023-.745.233-.874.478-.093.163-.128.35-.128.536-.011.815 0 1.211 0 1.304V3.4c-.011.059-.046.105-.081.14-.093.07-.222.07-.315 0-.5-.384-3.11-2.365-4.555-3.262-.07-.035-.14-.081-.21-.105-.523-.232-1.14-.244-1.642.047l-.105.07C14.547.581 6.405 5.206.242 15.504c0 0-.384.535-.093 1.036.28.583 2.97.746 3.402.792.489.047.477.455.477.455.047 4.228.128 6.279.816 13.431 0 0 .116.746.85.78.303.012 1.41-.046 4.368-.116.117.012.21-.07.222-.186v-.047c-.28-2.924-.373-5.452-.385-5.603-.011-.105-.105-.256-.198-.303-1.095-.629-1.736-1.712-1.747-2.97-.082-5.79.268-10.228.268-10.228s.035-.618.57-.571c.536.047.501.652.501.652-.198 2.493-.267 6.99-.267 6.99s0 .85.815.85.815-.85.815-.85c-.023-3.518.268-7.048.268-7.048s0-.594.583-.594c.314 0 .43.221.477.384.024.094.035.187.024.292-.245 3.04-.268 6.966-.268 6.966s0 .85.815.85c.816 0 .816-.92.816-.92-.012-2.912.268-6.978.268-6.978.023-.315.186-.594.57-.594.478.012.525.478.513.594-.256 3.169-.268 8.015-.256 10.088.035 1.246-.594 2.423-1.666 3.075-.093.07-.152.187-.14.303.07 1.922.233 4.054.373 5.592.011.105.081.186.186.198.816 0 2.388-.012 3.367-.012 1.584 0 2.213.012 3.366.023.128 0 .198-.093.198-.233.303-2.772.408-4.776.42-4.95.023-.198-.222-.233-.222-.233-.36-.047-1.211-.152-1.933-.268-.723-.117-.746-.944-.746-.944-.606-8.643 3.95-14.025 3.95-14.025s.453-.594 1.082-.361c.56.21.7 1.805.711 1.898.606 7.153-.082 15.494-.478 18.895-.011.14.047.245.175.28.152.023 2.89.116 3.145.093.443-.047.804-.385.874-.827.967-6.687.827-13.408.827-13.408.023-.245.21-.431.454-.455l2.621-.28c.35-.046.641-.185.793-.477.174-.303.163-.687-.024-.99"/>
        </g>
    </g>
</svg>
